<svg xmlns="http://www.w3.org/2000/svg" width="1024" height="1024" fill="none" viewBox="0 0 1024 1024"><defs><linearGradient id="panel" x1="190" x2="842" y1="168" y2="860" gradientUnits="userSpaceOnUse"><stop stop-color="#231916"/><stop offset="1" stop-color="#18110F"/></linearGradient><linearGradient id="panelGlow" x1="256" x2="744" y1="172" y2="852" gradientUnits="userSpaceOnUse"><stop stop-color="#7A3B20"/><stop offset="1" stop-color="#2B1813"/></linearGradient><radialGradient id="spark" cx="0" cy="0" r="1" gradientTransform="translate(592 402) rotate(90) scale(130)" gradientUnits="userSpaceOnUse"><stop stop-color="#FFD56A"/><stop offset="1" stop-color="#F6B23E"/></radialGradient><filter id="sparkGlow" width="244" height="244" x="470" y="280" color-interpolation-filters="sRGB" filterUnits="userSpaceOnUse"><feGaussianBlur result="blur" stdDeviation="18"/><feColorMatrix in="blur" type="matrix" values="1 0 0 0 0.95 0 1 0 0 0.63 0 0 1 0 0.14 0 0 0 0.7 0"/><feBlend in="SourceGraphic"/></filter><linearGradient id="accent" x1="684" x2="834" y1="298" y2="726" gradientUnits="userSpaceOnUse"><stop stop-color="#F6B34C"/><stop offset="1" stop-color="#FF8A2A"/></linearGradient><linearGradient id="sheen" x1="244" x2="448" y1="224" y2="430" gradientUnits="userSpaceOnUse"><stop stop-color="#fff" stop-opacity=".22"/><stop offset="1" stop-color="#fff" stop-opacity="0"/></linearGradient></defs><rect width="784" height="784" x="120" y="120" fill="url(#panel)" rx="180"/><rect width="776" height="776" x="124" y="124" stroke="url(#panelGlow)" stroke-width="8" rx="176"/><path stroke="#5C2E1D" stroke-linecap="round" stroke-width="18" d="M236 260C324 190 464 170 612 206" opacity=".58"/><path stroke="#5C2E1D" stroke-linecap="round" stroke-width="18" d="M214 760C366 824 566 824 718 754" opacity=".4"/><ellipse cx="370" cy="292" fill="url(#sheen)" rx="136" ry="92"/><path stroke="#F5F0E6" stroke-linecap="round" stroke-linejoin="round" stroke-width="64" d="M310 350L510 512L310 674"/><rect width="120" height="48" x="440" y="690" fill="#F5F0E6" rx="20"/><path stroke="url(#accent)" stroke-linecap="round" stroke-linejoin="round" stroke-width="64" d="M684 298H834V726H684"/><g filter="url(#sparkGlow)"><path fill="url(#spark)" d="M592 334L608.8 385.2L660 402L608.8 418.8L592 470L575.2 418.8L524 402L575.2 385.2L592 334Z"/></g></svg>