<svg width="148" height="27" viewBox="0 0 148 27" fill="none" xmlns="http://www.w3.org/2000/svg">
<g clip-path="url(#clip0_0_249)">
<path d="M4.81403 8.08286L0.248305 12.6082C-0.284362 13.1361 0.0961144 14.0412 0.857069 14.0412H16.9132L16.9893 26.184C16.9893 26.9383 17.9024 27.2399 18.359 26.7873L22.7725 22.4883C22.9247 22.3375 23.0008 22.1113 23.0008 21.885L23.0769 8.76166C23.0769 8.30913 22.6965 7.93202 22.2399 7.93202H5.34669C5.11842 7.85661 4.96622 7.93202 4.81403 8.08286Z" fill="url(#paint0_linear_0_249)"/>
<path d="M3.62637 15.8107V7.07107C3.62637 6.92039 3.70144 6.84504 3.77652 6.7697L10.383 0.139651C10.6833 -0.161714 11.2088 0.0643102 11.2088 0.441017V18.5983C11.2088 18.975 10.8334 19.201 10.5331 19.0503L3.92667 16.1874C3.77652 16.1121 3.62637 15.9614 3.62637 15.8107Z" fill="url(#paint1_linear_0_249)"/>
<path d="M11.6356 19.4268H16.3756C16.5944 19.4268 16.8131 19.2797 16.8131 19.0591V14.5722C16.6673 14.1308 16.1568 13.9837 15.7193 14.425L11.3439 18.7649C11.0522 18.9855 11.271 19.4268 11.6356 19.4268Z" fill="url(#paint2_linear_0_249)"/>
</g>
<path d="M42.0289 19.8213V22H31.9664V5.79443H34.482V19.8213H42.0289ZM47.8526 11.9263C46.1568 11.9263 44.9663 13.2178 44.8428 15.0034H50.75C50.6939 13.1953 49.5484 11.9263 47.8526 11.9263ZM50.7388 18.5298H53.041C52.7041 20.686 50.6602 22.2246 47.9536 22.2246C44.4834 22.2246 42.3833 19.8774 42.3833 16.1489C42.3833 12.4429 44.5171 9.97217 47.8526 9.97217C51.1319 9.97217 53.1758 12.2856 53.1758 15.8682V16.6992H44.8316V16.8452C44.8316 18.9004 46.0669 20.2593 48.0098 20.2593C49.3911 20.2593 50.4131 19.563 50.7388 18.5298ZM59.4038 20.0347C61.3017 20.0347 62.5483 18.4961 62.5483 16.0591C62.5483 13.6333 61.3017 12.0386 59.4038 12.0386C57.5395 12.0386 56.3266 13.5996 56.3266 16.0591C56.3266 18.5298 57.5395 20.0347 59.4038 20.0347ZM59.4262 26.4473C56.6411 26.4473 54.5747 24.9648 54.2714 22.9209H56.7085C57.0566 23.9092 58.1347 24.5605 59.5161 24.5605C61.414 24.5605 62.5371 23.4824 62.5371 21.8652V19.9224H62.4922C61.8296 21.2026 60.437 22.0449 58.7524 22.0449C55.7876 22.0449 53.8447 19.7314 53.8447 16.0479C53.8447 12.3306 55.7763 9.99463 58.8086 9.99463C60.4819 9.99463 61.852 10.8369 62.5708 12.207H62.6157V10.1855H64.9741V21.7866C64.9741 24.6055 62.7954 26.4473 59.4262 26.4473ZM66.766 22V10.1855H69.1918V22H66.766ZM67.9789 8.45605C67.204 8.45605 66.5751 7.83838 66.5751 7.07471C66.5751 6.2998 67.204 5.68213 67.9789 5.68213C68.765 5.68213 69.3939 6.2998 69.3939 7.07471C69.3939 7.83838 68.765 8.45605 67.9789 8.45605ZM76.0599 22.2246C72.6795 22.2246 70.4559 19.8999 70.4559 16.0928C70.4559 12.2969 72.6908 9.97217 76.0599 9.97217C79.429 9.97217 81.6639 12.2969 81.6639 16.0928C81.6639 19.8999 79.4403 22.2246 76.0599 22.2246ZM76.0599 20.2256C77.9691 20.2256 79.1932 18.7207 79.1932 16.0928C79.1932 13.4761 77.9579 11.9712 76.0599 11.9712C74.162 11.9712 72.9266 13.4761 72.9266 16.0928C72.9266 18.7207 74.162 20.2256 76.0599 20.2256ZM82.8494 22V10.1855H85.1629V12.1621H85.219C85.8592 10.8145 87.117 9.9834 88.9363 9.9834C91.5418 9.9834 93.0354 11.6455 93.0354 14.3521V22H90.5984V14.8237C90.5984 13.0493 89.7674 12.0723 88.0828 12.0723C86.3758 12.0723 85.2752 13.2852 85.2752 15.1157V22H82.8494ZM94.9846 5.79443H101.06C104.205 5.79443 106.395 7.96191 106.395 11.1177C106.395 14.2847 104.16 16.4634 100.982 16.4634H97.5002V22H94.9846V5.79443ZM97.5002 7.91699V14.3521H100.386C102.576 14.3521 103.823 13.1729 103.823 11.1289C103.823 9.08496 102.576 7.91699 100.398 7.91699H97.5002ZM107.614 22V10.1855H109.927V12.1958H109.984C110.377 10.8145 111.432 9.99463 112.825 9.99463C113.173 9.99463 113.476 10.0508 113.656 10.0845V12.3418C113.465 12.2632 113.038 12.207 112.567 12.207C111.006 12.207 110.04 13.2515 110.04 14.9248V22H107.614ZM119.03 22.2246C115.65 22.2246 113.426 19.8999 113.426 16.0928C113.426 12.2969 115.661 9.97217 119.03 9.97217C122.4 9.97217 124.634 12.2969 124.634 16.0928C124.634 19.8999 122.411 22.2246 119.03 22.2246ZM119.03 20.2256C120.94 20.2256 122.164 18.7207 122.164 16.0928C122.164 13.4761 120.928 11.9712 119.03 11.9712C117.132 11.9712 115.897 13.4761 115.897 16.0928C115.897 18.7207 117.132 20.2256 119.03 20.2256ZM129.998 17.6538H129.941L127.325 22H124.697L128.594 16.104L124.753 10.1855H127.471L130.054 14.4644H130.099L132.648 10.1855H135.321L131.446 16.0254L135.276 22H132.603L129.998 17.6538ZM137.394 26.4023C137.203 26.4023 136.585 26.3799 136.405 26.3462V24.3809C136.585 24.4258 136.989 24.4258 137.191 24.4258C138.326 24.4258 138.921 23.9541 139.291 22.7412C139.291 22.7188 139.505 22.0225 139.505 22.0112L135.237 10.1855H137.865L140.864 19.7988H140.897L143.896 10.1855H146.457L142.02 22.6177C141.01 25.4814 139.853 26.4023 137.394 26.4023Z" fill="black"/>
<defs>
<linearGradient id="paint0_linear_0_249" x1="3.58205" y1="23.637" x2="29.4091" y2="3.09205" gradientUnits="userSpaceOnUse">
<stop offset="0.3819" stop-color="#292929"/>
<stop offset="0.4598" stop-color="#2D2D2D"/>
<stop offset="0.5424" stop-color="#3A3A3A"/>
<stop offset="0.6271" stop-color="#4F4F4F"/>
<stop offset="0.7129" stop-color="#6D6D6D"/>
<stop offset="0.7595" stop-color="#808080"/>
</linearGradient>
<linearGradient id="paint1_linear_0_249" x1="8.00916" y1="11.5049" x2="15.8243" y2="-4.66118" gradientUnits="userSpaceOnUse">
<stop stop-color="#54C200"/>
<stop offset="0.292" stop-color="#79D631"/>
<stop offset="0.613" stop-color="#9CEA60"/>
<stop offset="0.8596" stop-color="#B2F67D"/>
<stop offset="1" stop-color="#BAFB88"/>
</linearGradient>
<linearGradient id="paint2_linear_0_249" x1="13.6555" y1="19.4489" x2="17.4689" y2="15.186" gradientUnits="userSpaceOnUse">
<stop offset="0.1406" stop-color="#54C200"/>
<stop offset="0.3915" stop-color="#79D631"/>
<stop offset="0.6674" stop-color="#9CEA60"/>
<stop offset="0.8793" stop-color="#B2F67D"/>
<stop offset="1" stop-color="#BAFB88"/>
</linearGradient>
<clipPath id="clip0_0_249">
<rect width="23.0769" height="27" fill="white"/>
</clipPath>
</defs>
</svg>
